<svg width="9.0389mm" height="10.355mm" version="1.1" viewBox="0 0 9.0389 10.355" xmlns="http://www.w3.org/2000/svg">
 <g transform="translate(-22.266 -111.15)">
  <g stroke-width=".88991" aria-label="Sh">
   <path d="m31.305 113.87a0.26614 0.26614 0 0 0-0.13329-0.23048l-4.2533-2.4557a0.26614 0.26614 0 0 0-0.26658 0l-4.2533 2.4557a0.26614 0.26614 0 0 0-0.13237 0.23048v4.9114a0.26614 0.26614 0 0 0 0.13237 0.23048l4.2533 2.4557a0.26614 0.26614 0 0 0 0.26658 0l4.2533-2.4557a0.26614 0.26614 0 0 0 0.13329-0.23048zm-0.53224 0.15366v4.6041l-3.9876 2.3021-3.9867-2.3021v-4.6041l3.9867-2.3021zm-3.303 2.9977q0-0.0532-0.03043-0.12928-0.0228-0.0837-0.09126-0.0837h-2.4335q-0.1673-0.0684-0.24335-0.24335v-1.9924q0.04564-0.17491 0.24335-0.25856h4.1978q-0.07605 0.21293-0.22814 0.44868-0.14449 0.23575-0.40305 0.55515h-2.2738q-0.03043 0-0.04564 0.0304t-0.0228 0.076q-0.0076 0.0456-0.01521 0.0913 0 0.0456 0 0.0684v0.076q0 0.0532 0.0076 0.12168 0.01521 0.0608 0.07605 0.0608h2.4563q0.18251 0.0989 0.23575 0.26616v1.962q-0.04564 0.18251-0.23575 0.26616h-4.2054q0.12168-0.25856 0.23575-0.51712 0.12168-0.25856 0.3194-0.48671h2.3879q0.04564-0.0304 0.05324-0.12928 0.01521-0.0989 0.01521-0.14449z" color="#000000" stroke-linecap="round" stroke-linejoin="round" stroke-width=".42175" style="-inkscape-stroke:none"/>
  </g>
 </g>
</svg>
